<?xml version="1.0" standalone="no"?><!DOCTYPE svg PUBLIC "-//W3C//DTD SVG 1.1//EN" "http://www.w3.org/Graphics/SVG/1.1/DTD/svg11.dtd"><svg class="icon" width="200px" height="200.00px" viewBox="0 0 1024 1024" version="1.1" xmlns="http://www.w3.org/2000/svg"><path fill="white" d="M512.00064 478.72a239.36 239.36 0 1 0-239.36-239.36A239.36 239.36 0 0 0 512.00064 478.72zM813.44064 576A512 512 0 0 0 0.00064 990.72V1024h664.32a256 256 0 0 1 149.12-448z"  /><path fill="white" d="M960.00064 768h-64v-64a64 64 0 0 0-128 0v64h-64a64 64 0 0 0 0 128h64v64a64 64 0 0 0 128 0v-64h64a64 64 0 0 0 0-128z"  /></svg>
