<?xml version="1.0" standalone="no"?><!DOCTYPE svg PUBLIC "-//W3C//DTD SVG 1.1//EN" "http://www.w3.org/Graphics/SVG/1.1/DTD/svg11.dtd"><svg class="icon" width="200px" height="200.00px" viewBox="0 0 1024 1024" version="1.1" xmlns="http://www.w3.org/2000/svg"><path fill="white" d="M768 96 256 96C203.072 96 160 139.072 160 192l0 32 0 32 0 576c0 52.928 43.072 96 96 96l512 0c52.928 0 96-43.072 96-96L864 256 864 192C864 139.072 820.928 96 768 96zM224 192c0-17.632 14.368-32 32-32l512 0c17.664 0 32 14.368 32 32l0 46.912C764.288 261.312 656.864 320 512 320c-144.928 0-252.352-58.72-288-81.088L224 224 224 192zM768 864 256 864c-17.632 0-32-14.336-32-32L224 312.768C281.024 342.944 382.336 384 512 384c129.696 0 230.976-41.056 288-71.232L800 832C800 849.664 785.664 864 768 864zM640 608c17.696 0 32-14.304 32-32s-14.304-32-32-32l-57.536 0 52.16-78.24c9.824-14.688 5.856-34.592-8.864-44.384-14.752-9.824-34.624-5.856-44.384 8.864l-64 96c-3.648 5.472-4.8 11.648-4.768 17.76l-1.184 0c0-6.112-1.152-12.288-4.768-17.76l-64-96c-9.824-14.72-29.696-18.688-44.384-8.864-14.688 9.792-18.656 29.664-8.864 44.384L441.536 544 384 544c-17.664 0-32 14.304-32 32s14.336 32 32 32l96 0 0 32-96 0c-17.664 0-32 14.304-32 32s14.336 32 32 32l96 0 0 96c0 17.696 14.336 32 32 32s32-14.304 32-32l0-96 96 0c17.696 0 32-14.304 32-32s-14.304-32-32-32l-96 0 0-32L640 608z" /></svg>
