<?xml version="1.0" standalone="no"?><!DOCTYPE svg PUBLIC "-//W3C//DTD SVG 1.1//EN" "http://www.w3.org/Graphics/SVG/1.1/DTD/svg11.dtd"><svg class="icon" width="200px" height="148.73px" viewBox="0 0 1377 1024" version="1.1" xmlns="http://www.w3.org/2000/svg"><path fill="#2c2c2c" d="M171.441747 620.660262a26.829694 26.829694 0 0 0 14.845764-4.471616l435.624803-289.850131a9.479825 9.479825 0 0 1 13.325415 3.398428l110.448909 163.213974a63.228646 63.228646 0 0 0 85.139563 23.073537l1.609782-0.894323 439.470393-330.899563-51.691878 120.733624a26.847581 26.847581 0 1 0 49.366637 21.106026l74.228821-173.14096a38.903057 38.903057 0 0 0-30.764716-53.659389l-202.206463-25.756507a27.044332 27.044332 0 1 0-6.796856 53.659389l132.53869 16.902708-433.388995 325.891353a9.479825 9.479825 0 0 1-11.715633-4.113886l-110.359476-163.661136a63.139214 63.139214 0 0 0-88.537992-20.927161L156.864279 571.651354a26.829694 26.829694 0 0 0 14.935197 49.187773zM1350.427948 970.340611H89.790044a35.772926 35.772926 0 0 1-35.772926-35.772925V26.829694a26.829694 26.829694 0 0 0-53.659389 0v907.380262a89.879476 89.879476 0 0 0 89.432315 89.432315h1260.995633a26.829694 26.829694 0 0 0 0-53.659389z" /></svg>