<?xml version="1.0" standalone="no"?><!DOCTYPE svg PUBLIC "-//W3C//DTD SVG 1.1//EN" "http://www.w3.org/Graphics/SVG/1.1/DTD/svg11.dtd"><svg class="icon" width="200px" height="200.00px" viewBox="0 0 1024 1024" version="1.1" xmlns="http://www.w3.org/2000/svg"><path fill="#2c2c2c" d="M724.985 799.7853125c-64.625625 45.47625-143.61375 67.01625-229.779375 57.444375-160.3678125-19.1503125-284.83125-150.7959375-296.799375-311.1628125-11.968125-208.2384375 167.5453125-380.5734375 378.1790625-354.2428125 146.004375 19.149375 263.29125 131.645625 287.2265625 275.2584375 14.35875 86.165625-4.7859375 167.5453125-45.48 232.17-7.1775 9.5775-4.7859375 21.54375 2.3953125 31.1165625 11.968125 11.968125 28.7221875 9.5765625 38.29875-4.785 47.8678125-78.9890625 71.803125-174.73125 52.6575-275.259375-31.1165625-153.185625-153.189375-275.2546875-303.980625-303.976875-260.896875-47.870625-485.889375 167.5453125-452.38125 426.0496875C176.8625 747.1240625 318.08375 885.9509375 490.41875 905.1003125c98.13375 9.5728125 189.09-14.3625 260.896875-67.02 11.968125-9.5728125 14.35875-26.326875 4.7859375-35.9034375-9.5765625-9.5728125-21.54375-9.5728125-31.1165625-2.3915625z"  /><path fill="#2c2c2c" d="M512.6703125 316.7853125c-47.870625 7.18125-86.1646875 40.689375-105.3140625 83.7740625-9.5728125 21.5409375-11.9671875 43.0846875-9.5728125 62.2303125 2.3915625 9.5765625 11.968125 19.149375 23.93625 19.149375h2.3915625c14.3625 0 26.3296875-11.968125 23.9353125-26.326875 0-14.3634375 2.394375-26.330625 7.18125-40.6940625 9.5728125-23.9353125 28.7221875-40.689375 52.6575-47.8715625 57.4434375-14.35875 107.7103125 26.330625 107.7103125 81.3834375 0 31.1165625-36.3384375 67.993125-39.8446875 72.7875-3.8278125 5.235-60.6834375 89.0878125-60.6834375 113.90625 0 13.220625 10.715625 23.9353125 23.9353125 23.9353125s23.06625-13.1896875 25.8103125-26.1225c5.469375-25.78125 81.8990625-107.91375 91.471875-131.85 7.18125-16.7540625 11.968125-33.508125 11.968125-52.6565625-0.0009375-76.5928125-69.4125-138.826875-155.5828125-131.6446875zM514.355 706.43375c0 13.220625 10.715625 23.9353125 23.9315625 23.9353125 13.220625 0 23.9353125-10.715625 23.9353125-23.9353125a23.925 23.925 0 0 0-11.968125-20.72625 23.9325 23.9325 0 1 0-35.89875 20.72625z m0 0"  /></svg>